# xmcd
#
# Track frame offsets:
#	150
#	22875
#	46740
#	63625
#	86805
#	110442
#	126782
#	150497
#	177065
#	198442
#
# Disc length: 2868 seconds
#
# Revision: 2
# Processed by: cddbd v1.4PL0 Copyright (c) Steve Scherf et al.
# Submitted via: EasyCDDAExtractor 5.0.7
#
DISCID=790b320a
DTITLE=Pave Maijanen - Kohti Uuta Maailmaa
DYEAR=1998
DGENRE=Blues
TTITLE0=Se Ei Voi
TTITLE1=Kohti Uutta Maailmaa
TTITLE2=Halpaa Bensaa
TTITLE3=Sadetanssi
TTITLE4=Täynnä Elämää
TTITLE5=Onkijan Onni
TTITLE6=Kaukosäädin Ja Kaljapullo
TTITLE7=Niin Turhaa Kirjoittaa
TTITLE8=Älä Valita
TTITLE9=Mona Lisa
EXTD=
EXTT0=
EXTT1=
EXTT2=
EXTT3=
EXTT4=
EXTT5=
EXTT6=
EXTT7=
EXTT8=
EXTT9=
PLAYORDER=
